# xmcd
#
# Track frame offsets:
#	150
#	18657
#	35375
#	53977
#	65197
#	78985
#	89457
#	102525
#	122907
#	141017
#	156957
#	188775
#	203220
#	216817
#	243045
#	267595
#	282675
#	296430
#
# Disc length: 4122 seconds
#
# Revision: 1
# Processed by: cddbd v1.5.1PL0 Copyright (c) Steve Scherf et al.
# Submitted via: audiograbber 1.83.01
#
DISCID=1a101812
DTITLE=Taylor, Johnnie - The Philosophy Continues - One Step Beyond
DYEAR=1994
DGENRE=R&B
TTITLE0=Testify (I Wonna)
TTITLE1=Separation Line
TTITLE2=Love Bones
TTITLE3=Love Is A Hurtin' Thing
TTITLE4=I Had A Fight With Love
TTITLE5=I Could Never Be President
TTITLE6=It's Amazing
TTITLE7=Who Can I Turn To
TTITLE8=Games People Play
TTITLE9=It's Your Thing
TTITLE10=Time After Time
TTITLE11=Party Life
TTITLE12=Will You Love Me Forever
TTITLE13=I Am Somebody (Parts 1 and 2)
TTITLE14=I Don't Wanna Lose You (Parts 1 and 2)
TTITLE15=Don't Take My Sunshine
TTITLE16=Jody's Got Your Girl And Gone
TTITLE17=A Fool Like Me
EXTD=
EXTT0=
EXTT1=
EXTT2=
EXTT3=
EXTT4=
EXTT5=
EXTT6=
EXTT7=
EXTT8=
EXTT9=
EXTT10=
EXTT11=
EXTT12=
EXTT13=
EXTT14=
EXTT15=
EXTT16=
EXTT17=
PLAYORDER=
